<svg width="24" height="24" viewBox="0 0 24 24" fill="none" xmlns="http://www.w3.org/2000/svg">
<path d="M8.9999 16.17L5.5299 12.7C5.34292 12.513 5.08933 12.408 4.8249 12.408C4.56048 12.408 4.30688 12.513 4.1199 12.7C3.93292 12.887 3.82788 13.1406 3.82788 13.405C3.82788 13.5359 3.85367 13.6656 3.90377 13.7866C3.95388 13.9075 4.02732 14.0174 4.1199 14.11L8.2999 18.29C8.6899 18.68 9.3199 18.68 9.7099 18.29L20.2899 7.71002C20.4769 7.52304 20.5819 7.26944 20.5819 7.00502C20.5819 6.74059 20.4769 6.48699 20.2899 6.30002C20.1029 6.11304 19.8493 6.008 19.5849 6.008C19.3205 6.008 19.0669 6.11304 18.8799 6.30002L8.9999 16.17Z" fill="black"/>
</svg>
