<svg width="24" height="24" viewBox="0 0 24 24" fill="none" xmlns="http://www.w3.org/2000/svg">
<g clip-path="url(#clip0_47_3447)">
<path fill-rule="evenodd" clip-rule="evenodd" d="M16.6782 2.28571C16.8014 2.28571 16.9195 2.33464 17.0066 2.42173C17.0936 2.50872 17.1426 2.62668 17.1428 2.74971V5.38971C17.1428 6.0209 17.6544 6.53257 18.2856 6.53257C18.9168 6.53257 19.4285 6.0209 19.4285 5.38971V2.74971C19.4282 2.02046 19.1383 1.32076 18.6226 0.805194C18.1068 0.289627 17.4074 0 16.6782 0H2.75018C2.02076 0 1.32121 0.289762 0.805437 0.80554C0.28966 1.32132 -0.000104904 2.02086 -0.000104904 2.75029V16.6789C0.000154495 17.4081 0.290028 18.1078 0.80578 18.6234C1.32153 19.1389 2.02093 19.4286 2.75018 19.4286H5.41875C6.04994 19.4286 6.56161 18.9169 6.56161 18.2857C6.56161 17.6545 6.04994 17.1429 5.41875 17.1429H2.75018C2.627 17.1429 2.50885 17.0939 2.42174 17.0068C2.33462 16.9198 2.28565 16.8016 2.28561 16.6785V2.75029C2.28561 2.62708 2.33455 2.50891 2.42168 2.42178C2.5088 2.33466 2.62697 2.28571 2.75018 2.28571H16.6782Z" fill="black"/>
<path fill-rule="evenodd" clip-rule="evenodd" d="M21.2509 4.57141L7.32114 4.57141C6.95947 4.57141 6.60236 4.64274 6.269 4.78086C5.93526 4.91913 5.63202 5.1218 5.37662 5.3773C5.12122 5.63279 4.91866 5.93609 4.7805 6.26989C4.6424 6.60355 4.57135 6.96115 4.57143 7.32227C4.57143 7.32213 4.57143 7.3224 4.57143 7.32227V21.2497C4.57143 21.9789 4.86105 22.6783 5.37662 23.1941C5.89219 23.7099 6.59149 23.9997 7.32074 24H21.2497C21.9791 24 22.6787 23.7102 23.1945 23.1944C23.7102 22.6787 24 21.9791 24 21.2497V7.3217C24 6.59261 23.7105 5.89337 23.1952 5.37764C22.6798 4.86192 21.9799 4.57193 21.2509 4.57141ZM21.2503 6.85713C21.3734 6.85729 21.4913 6.90626 21.5783 6.99331C21.6654 7.08043 21.7143 7.19854 21.7143 7.3217V21.2497C21.7143 21.3729 21.6653 21.4911 21.5782 21.5782C21.4911 21.6653 21.3729 21.7143 21.2497 21.7143H7.32155C7.19836 21.7142 7.08024 21.6653 6.99315 21.5781C6.90606 21.491 6.85714 21.3729 6.85714 21.2497V7.32227C6.85712 7.26125 6.86912 7.20041 6.89246 7.14403C6.9158 7.08764 6.95001 7.03641 6.99315 6.99325C7.03629 6.9501 7.08752 6.91586 7.14389 6.89251C7.20065 6.86899 7.26053 6.85713 7.32114 6.85713H21.2503Z" fill="black"/>
</g>
<defs>
<clipPath id="clip0_47_3447">
<rect width="24" height="24" fill="white"/>
</clipPath>
</defs>
</svg>
