<svg width="24" height="24" viewBox="0 0 24 24" fill="none" xmlns="http://www.w3.org/2000/svg">
<g clip-path="url(#clip0_47_3439)">
<path d="M10.4999 13.248C10.4999 12.564 9.93591 12 9.25191 12C8.56791 12 8.00391 12.564 8.00391 13.248C8.00391 13.579 8.13539 13.8964 8.36944 14.1305C8.60348 14.3645 8.92092 14.496 9.25191 14.496C9.5829 14.496 9.90033 14.3645 10.1344 14.1305C10.3684 13.8964 10.4999 13.579 10.4999 13.248ZM14.5079 16.092C13.9679 16.632 12.8159 16.824 11.9999 16.824C11.1839 16.824 10.0319 16.632 9.49191 16.092C9.46272 16.0608 9.42741 16.0358 9.38819 16.0188C9.34897 16.0018 9.30667 15.993 9.26391 15.993C9.22115 15.993 9.17884 16.0018 9.13962 16.0188C9.1004 16.0358 9.0651 16.0608 9.03591 16.092C9.00466 16.1212 8.97974 16.1565 8.96271 16.1957C8.94568 16.2349 8.93688 16.2772 8.93688 16.32C8.93688 16.3628 8.94568 16.4051 8.96271 16.4443C8.97974 16.4835 9.00466 16.5188 9.03591 16.548C9.88791 17.4 11.5199 17.472 11.9999 17.472C12.4799 17.472 14.1119 17.4 14.9639 16.548C14.9952 16.5188 15.0201 16.4835 15.0371 16.4443C15.0541 16.4051 15.0629 16.3628 15.0629 16.32C15.0629 16.2772 15.0541 16.2349 15.0371 16.1957C15.0201 16.1565 14.9952 16.1212 14.9639 16.092C14.8439 15.972 14.6399 15.972 14.5079 16.092ZM14.7479 12C14.0639 12 13.4999 12.564 13.4999 13.248C13.4999 13.932 14.0639 14.496 14.7479 14.496C15.4319 14.496 15.9959 13.932 15.9959 13.248C15.9959 12.564 15.4439 12 14.7479 12Z" fill="black"/>
<path d="M12 0C5.376 0 0 5.376 0 12C0 18.624 5.376 24 12 24C18.624 24 24 18.624 24 12C24 5.376 18.624 0 12 0ZM18.96 13.596C18.984 13.764 18.996 13.944 18.996 14.124C18.996 16.812 15.864 18.996 12 18.996C8.136 18.996 5.004 16.812 5.004 14.124C5.004 13.944 5.016 13.764 5.04 13.596C4.428 13.32 4.008 12.708 4.008 12C4.00622 11.6559 4.10616 11.3189 4.29527 11.0314C4.48438 10.744 4.75422 10.5188 5.07091 10.3841C5.38759 10.2495 5.737 10.2115 6.07523 10.2748C6.41347 10.3381 6.72545 10.4999 6.972 10.74C8.184 9.864 9.864 9.312 11.724 9.252L12.612 5.064C12.624 4.98 12.672 4.908 12.744 4.872C12.816 4.824 12.9 4.812 12.984 4.824L15.888 5.448C15.9865 5.2483 16.1366 5.07858 16.3228 4.95645C16.509 4.83433 16.7245 4.76424 16.9469 4.75347C17.1693 4.74269 17.3905 4.79162 17.5877 4.89517C17.7848 4.99873 17.9506 5.15314 18.068 5.34238C18.1853 5.53163 18.2499 5.74883 18.255 5.97144C18.2601 6.19405 18.2055 6.41398 18.0969 6.6084C17.9884 6.80282 17.8298 6.96465 17.6376 7.07712C17.4454 7.18959 17.2267 7.24859 17.004 7.248C16.332 7.248 15.792 6.72 15.756 6.06L13.152 5.508L12.36 9.252C14.196 9.312 15.84 9.876 17.04 10.74C17.224 10.5643 17.4441 10.431 17.685 10.3493C17.9258 10.2676 18.1817 10.2395 18.4345 10.267C18.6874 10.2945 18.9312 10.3769 19.1489 10.5084C19.3666 10.64 19.5529 10.8175 19.6948 11.0286C19.8367 11.2397 19.9308 11.4793 19.9705 11.7305C20.0101 11.9818 19.9944 12.2386 19.9244 12.4832C19.8544 12.7277 19.7318 12.954 19.5653 13.1462C19.3987 13.3385 19.1921 13.492 18.96 13.596Z" fill="black"/>
</g>
<defs>
<clipPath id="clip0_47_3439">
<rect width="24" height="24" fill="white"/>
</clipPath>
</defs>
</svg>
