<svg width="24" height="24" viewBox="0 0 24 24" fill="none" xmlns="http://www.w3.org/2000/svg">
<g clip-path="url(#clip0_47_3445)">
<path d="M12 3.6V6C10.8117 5.99787 9.64961 6.34862 8.66094 7.00776C7.67227 7.6669 6.90157 8.60476 6.44656 9.70244C5.99155 10.8001 5.87272 12.0082 6.10512 13.1735C6.33752 14.3388 6.91069 15.4088 7.75198 16.248L6.05998 17.94C4.88509 16.7652 4.08497 15.2684 3.76081 13.6389C3.43664 12.0094 3.60299 10.3204 4.23881 8.78538C4.87464 7.2504 5.95138 5.93846 7.33287 5.01546C8.71435 4.09247 10.3385 3.59988 12 3.6ZM17.94 6.06C19.1149 7.23476 19.915 8.73155 20.2391 10.3611C20.5633 11.9906 20.397 13.6796 19.7611 15.2146C19.1253 16.7496 18.0486 18.0615 16.6671 18.9845C15.2856 19.9075 13.6614 20.4001 12 20.4V18C13.1882 18.0021 14.3503 17.6514 15.339 16.9922C16.3277 16.3331 17.0984 15.3952 17.5534 14.2976C18.0084 13.1999 18.1272 11.9918 17.8948 10.8265C17.6624 9.66121 17.0893 8.59116 16.248 7.752L17.94 6.06ZM12 24L7.19998 19.2L12 14.4V24ZM12 9.6V0L16.8 4.8L12 9.6Z" fill="black"/>
</g>
<defs>
<clipPath id="clip0_47_3445">
<rect width="24" height="24" fill="white"/>
</clipPath>
</defs>
</svg>
